# xmcd
#
# Track frame offsets:
#	150
#	13805
#	26595
#	40709
#	51336
#	63063
#	76324
#	86875
#	101677
#	112515
#	123809
#	133861
#	144973
#
# Disc length: 2070 seconds
#
# Revision: 0
# Processed by: cddbd v1.5.2PL0 Copyright (c) Steve Scherf et al.
# Submitted via: EasyCDDAExtractor 16.0.8.1
#
DISCID=9f08140d
DTITLE=Ben E. King - The Best
DYEAR=1900
DGENRE=
TTITLE0=Stand by Me
TTITLE1=Don't Play That Song
TTITLE2=Amor
TTITLE3=Young Boy Blues
TTITLE4=Goodnight my Love
TTITLE5=Spanish harlem
TTITLE6=How can I Forget?
TTITLE7=It's all Over
TTITLE8=I (Who Have Nothing)
TTITLE9=Save the Last Dance For Me
TTITLE10=I Count the Tears
TTITLE11=This Magic Moment
TTITLE12=There Goes my Baby
EXTD=
EXTT0=
EXTT1=
EXTT2=
EXTT3=
EXTT4=
EXTT5=
EXTT6=
EXTT7=
EXTT8=
EXTT9=
EXTT10=
EXTT11=
EXTT12=
PLAYORDER=
